<svg xmlns="http://www.w3.org/2000/svg" width="1440" height="900" viewBox="0 0 1440 900"><rect width="1440" height="900" fill="#faf9f6"/><g font-family="PingFang SC, sans-serif" font-size="23" fill="#333"><rect x="40" y="30" width="1360" height="70" rx="12" fill="#fff" stroke="#888" stroke-width="2"/><text x="58" y="62">房间号 / 复制 · 房主：玩家 01 · 经典模式</text><rect x="80" y="170" width="280" height="150" rx="12" fill="#fff" stroke="#888" stroke-width="2"/><text x="98" y="202">席位 01</text><text x="98" y="238">玩家 01 · 房主</text><rect x="390" y="170" width="280" height="150" rx="12" fill="#fff" stroke="#888" stroke-width="2"/><text x="408" y="202">席位 02</text><text x="408" y="238">玩家 02 · 已准备</text><rect x="700" y="170" width="280" height="150" rx="12" fill="#fff" stroke="#888" stroke-width="2"/><text x="718" y="202">席位 03</text><text x="718" y="238">玩家 03 · 未准备</text><rect x="80" y="360" width="280" height="150" rx="12" fill="#fff" stroke="#888" stroke-width="2"/><text x="98" y="392">席位 04</text><text x="98" y="428">空位</text><rect x="390" y="360" width="280" height="150" rx="12" fill="#fff" stroke="#888" stroke-width="2"/><text x="408" y="392">席位 05</text><text x="408" y="428">空位</text><rect x="700" y="360" width="280" height="150" rx="12" fill="#fff" stroke="#888" stroke-width="2"/><text x="718" y="392">席位 06</text><text x="718" y="428">空位</text><rect x="1050" y="170" width="310" height="340" rx="12" fill="#fff" stroke="#888" stroke-width="2"/><text x="1068" y="202">观众区</text><text x="1068" y="238">观众人数 / 容量待定</text><text x="1068" y="274">等待下一局参战</text><rect x="80" y="590" width="1280" height="90" rx="12" fill="#fff" stroke="#888" stroke-width="2"/><text x="98" y="622">至少两位真人才可开始 · 容量按创建时显示</text><rect x="80" y="720" width="1280" height="120" rx="12" fill="#fff" stroke="#888" stroke-width="2"/><text x="98" y="752">准备 / 房主开始 / 离开</text><text x="98" y="788">房主离开确认：离开将结束房间</text><text x="40" y="888" font-size="16">P05 · 房间等候 · wireframe v1 · 静态排布草稿</text></g></svg>